<svg width="749" height="415" viewBox="0 0 749 415" fill="none" xmlns="http://www.w3.org/2000/svg">
<mask id="path-1-inside-1_69_33" fill="white">
<path fill-rule="evenodd" clip-rule="evenodd" d="M0 125C0 172.18 26.1387 213.255 64.7247 234.534C64.8944 234.628 65 234.806 65 235V235C65 334.411 203.792 415 375 415C546.208 415 685 334.411 685 235V235C685 234.465 685.287 233.971 685.752 233.707C723.527 212.202 749 171.576 749 125C749 55.9644 693.036 0 624 0C588.545 0 556.537 14.7615 533.788 38.4739C517.069 55.9001 493.189 67.9111 469.444 63.5061C439.667 57.9819 407.933 55 375 55C341.8 55 309.819 58.0304 279.832 63.6409C256.016 68.0969 232.037 56.0362 215.275 38.5396C192.522 14.7887 160.488 0 125 0C55.9644 0 0 55.9644 0 125Z"/>
</mask>
<path d="M533.788 38.4739L510.696 16.3202L533.788 38.4739ZM469.444 63.5061L463.607 94.9693L469.444 63.5061ZM279.832 63.6409L273.947 32.1867L279.832 63.6409ZM685.752 233.707L669.92 205.897L685.752 233.707ZM64.7247 234.534L49.2718 262.556L64.7247 234.534ZM80.1775 206.512C51.387 190.635 32 160.059 32 125H-32C-32 184.301 0.890355 235.875 49.2718 262.556L80.1775 206.512ZM375 383C294.018 383 222.27 363.873 171.865 334.606C120.649 304.868 97 268.525 97 235H33C33 300.886 78.7468 354.544 139.729 389.952C201.522 425.832 284.774 447 375 447V383ZM653 235C653 268.525 629.351 304.868 578.135 334.606C527.73 363.873 455.982 383 375 383V447C465.226 447 548.478 425.832 610.271 389.952C671.253 354.544 717 300.886 717 235H653ZM717 125C717 159.611 698.108 189.85 669.92 205.897L701.583 261.516C748.945 234.554 781 183.54 781 125H717ZM624 32C675.362 32 717 73.6375 717 125H781C781 38.2913 710.709 -32 624 -32V32ZM556.879 60.6275C573.844 42.9444 597.617 32 624 32V-32C579.472 -32 539.23 -13.4214 510.696 16.3202L556.879 60.6275ZM375 87C406.015 87 435.794 89.8094 463.607 94.9693L475.281 32.043C443.54 26.1545 409.852 23 375 23V87ZM285.718 95.095C313.724 89.8551 343.734 87 375 87V23C339.866 23 305.914 26.2057 273.947 32.1867L285.718 95.095ZM125 32C151.407 32 175.2 42.9645 192.168 60.6765L238.383 16.4027C209.844 -13.3871 169.569 -32 125 -32V32ZM32 125C32 73.6375 73.6375 32 125 32V-32C38.2913 -32 -32 38.2913 -32 125H32ZM510.696 16.3202C498.318 29.2222 484.655 33.782 475.281 32.043L463.607 94.9693C501.722 102.04 535.82 82.578 556.879 60.6275L510.696 16.3202ZM273.947 32.1867C264.537 33.9474 250.802 29.3662 238.383 16.4027L192.168 60.6765C213.272 82.7061 247.495 102.246 285.718 95.095L273.947 32.1867ZM717 235C717 245.961 711.12 256.087 701.583 261.516L669.92 205.897C659.455 211.855 653 222.97 653 235H717ZM49.2718 262.556C39.2433 257.025 33 246.475 33 235H97C97 223.138 90.5455 212.23 80.1775 206.512L49.2718 262.556Z" fill="#3CAA3C" mask="url(#path-1-inside-1_69_33)"/>
<circle cx="124" cy="120" r="44" stroke="#3CAA3C" stroke-width="32"/>
<circle cx="624" cy="120" r="44" stroke="#3CAA3C" stroke-width="32"/>
<rect x="302" y="164" width="24" height="32" rx="12" fill="#3CAA3C"/>
<rect x="415" y="164" width="24" height="32" rx="12" fill="#3CAA3C"/>
<path d="M89.5 280.5C312.382 217.172 435.91 217.287 653.5 280.5" stroke="#3CAA3C" stroke-width="16" stroke-linecap="round"/>
</svg>
